<svg xmlns="http://www.w3.org/2000/svg" width="56" height="56" viewBox="0 0 56 56"><defs><style>.a{fill:rgba(255,255,255,0);}.b{fill:#fbbb00;}.c{fill:#518ef8;}.d{fill:#28b446;}.e{fill:#f14336;}</style></defs><g transform="translate(-671 -782)"><rect class="a" width="56" height="56" rx="8" transform="translate(671 782)"/><g transform="translate(683.488 794.85)"><path class="b" d="M6.766,148.473,5.7,152.44l-3.884.082a15.292,15.292,0,0,1-.112-14.254h0l3.458.634,1.515,3.437a9.11,9.11,0,0,0,.086,6.134Z" transform="translate(0 -130.023)"/><path class="c" d="M276.29,208.176a15.259,15.259,0,0,1-5.442,14.756h0l-4.355-.222-.616-3.848a9.1,9.1,0,0,0,3.914-4.646h-8.162v-6.039H276.29Z" transform="translate(-246.028 -195.763)"/><path class="d" d="M53.51,318.128h0a15.269,15.269,0,0,1-23-4.67l4.947-4.049a9.078,9.078,0,0,0,13.082,4.648Z" transform="translate(-28.69 -290.96)"/><path class="e" d="M51.925,3.514,46.98,7.563A9.077,9.077,0,0,0,33.6,12.316L28.625,8.245h0a15.268,15.268,0,0,1,23.3-4.73Z" transform="translate(-26.917)"/></g></g></svg>