<svg xmlns="http://www.w3.org/2000/svg" width="72" height="72" viewBox="0 0 72 72"><defs><style>.a{fill:#fff;}.b{fill:#777;}.c{fill:#ffc107;}</style></defs><g transform="translate(-152 -244)"><rect class="a" width="72" height="72" rx="8" transform="translate(152 244)"/><g transform="translate(93.333 252)"><path class="b" d="M132.436,0a15.121,15.121,0,0,0-15.1,15.1V24.4a1.162,1.162,0,0,0,1.162,1.162h4.647A1.162,1.162,0,0,0,124.3,24.4V15.1a8.132,8.132,0,1,1,16.264,0V24.4a1.162,1.162,0,0,0,1.162,1.162h4.647a1.162,1.162,0,0,0,1.162-1.162V15.1A15.121,15.121,0,0,0,132.436,0Z" transform="translate(-38.019)"/><path class="c" d="M80.476,213.333h27.882a5.809,5.809,0,0,1,5.809,5.809v20.911a5.809,5.809,0,0,1-5.809,5.809H80.476a5.809,5.809,0,0,1-5.809-5.809V219.142A5.809,5.809,0,0,1,80.476,213.333Z" transform="translate(0 -190.098)"/><path class="a" d="M214.284,282.942a5.809,5.809,0,1,0-8.385,5.181L205,294.4a1.162,1.162,0,0,0,1.15,1.324H210.8a1.161,1.161,0,0,0,1.162-1.327l-.9-6.273A5.829,5.829,0,0,0,214.284,282.942Z" transform="translate(-114.059 -246.928)"/></g></g></svg>