<svg xmlns="http://www.w3.org/2000/svg" width="193.237" height="96" viewBox="0 0 193.237 96"><defs><style>.a{fill:rgba(255,255,255,0);}.b{fill:#8dc63f;}.c{fill:#f7941d;}.d{fill:#fff200;}.e{fill:#fff;}</style></defs><g transform="translate(-140 -18)"><rect class="a" width="193" height="96" transform="translate(140 18)"/><g transform="translate(53.273 -123.72)"><path class="b" d="M568.481,147.682l.783-.962h.082a20.509,20.509,0,0,1,1.123,4.57,7.954,7.954,0,0,1-.51,4.326,4.057,4.057,0,0,1-1.9,1.892c-.361.188-.428.053-.431-.293a16.6,16.6,0,0,1,.411-4.4,1.4,1.4,0,0,0,.064-.434.355.355,0,0,1-.026-.375,5.775,5.775,0,0,0,.161-1.531A13.8,13.8,0,0,1,568.481,147.682Z" transform="translate(-339.842)"/><path class="b" d="M539.234,156.608a5.066,5.066,0,0,1-1.466-3.443,16.183,16.183,0,0,1,.7-5.925c.047-.167.088-.34.132-.51h.076l.587.628a1.221,1.221,0,0,1,.293,1.044,1.667,1.667,0,0,1-.625,1.554c.158-.073.293-.138.422.018a.6.6,0,0,1,.138.411c-.065.666.047,1.332,0,1.989-.056,1.079-.056,2.156-.018,3.226,0,.343-.243.625-.155.977C539.349,156.614,539.267,156.611,539.234,156.608Z" transform="translate(-318.714 -0.007)"/><path class="c" d="M533.474,375.955a32.692,32.692,0,0,1,.968-3.191,40.339,40.339,0,0,1,3.948-7.954,25.768,25.768,0,0,1,2.346-3.259c-.117-.276-.276-.07-.387-.015-.61.293-1.173.672-1.76,1.024-.49.355-.98.716-1.466,1.053a.84.84,0,0,0-.091.073c-.331.267-.628.587-.968.836a12.557,12.557,0,0,0-1.4,1.337c-.223.246-.446.487-.675.724a4.711,4.711,0,0,0-.525.636c-.091.111-.173.229-.264.34-.669.8-1.156,1.76-1.789,2.584a5.522,5.522,0,0,1-.484.657,5.387,5.387,0,0,1-2.179,1.824,3.208,3.208,0,0,1-3.338-.587,7.854,7.854,0,0,1-1.613-1.792c-.7-.912-1.258-1.936-1.974-2.833a2.724,2.724,0,0,1-.364-.461,30.312,30.312,0,0,0-2.2-2.285.831.831,0,0,0-.094-.073c-.314-.293-.669-.537-.985-.827a.913.913,0,0,0-.088-.079c-.657-.452-1.291-.944-1.959-1.376-.17-.1-.349-.179-.513-.293a3.813,3.813,0,0,0-.616-.364c-.208-.085-.381-.32-.645-.179.311.411.631.815.936,1.235a38.846,38.846,0,0,1,6.385,13.257Z" transform="translate(-302.208 -151.722)"/><path class="b" d="M551.442,268a8.633,8.633,0,0,1,.094-1.51,1.056,1.056,0,0,0,.155-1.147.841.841,0,0,1,0-.563c.053-.988.205-1.962.355-2.933.035-.232.106-.358.367-.343.563.029,1.132,0,1.7,0a13.859,13.859,0,0,1-.032,2.813c-.05.334.126.636.07.962-.018.106.065.255-.079.308s-.176-.059-.255-.117c-.452-.355-.452-.355-.836.07l-.029.032c-.507.548-.5.663.126,1.232a2.256,2.256,0,0,0-.317-.428.329.329,0,0,1,0-.472c.147-.15.293-.108.449,0s.179.261.343.314c-.059-.152-.182-.232-.264-.346s-.2-.27-.064-.431a.308.308,0,0,1,.452-.038,1.032,1.032,0,0,1,.49.821c0,2.839.138,5.672.188,8.506a.586.586,0,0,1-.041.5c-.223-.437-.587-.241-.909-.264-.6-.05-1.208.015-1.813-.047-.021.129.1.328-.15.355-.161-2.1-.117-4.2-.07-6.3a.423.423,0,0,0,.026-.255c-.035-.293.041-.463.352-.5s.372-.246.238-.543c0,.179.021.367-.167.452A.293.293,0,0,1,551.442,268Z" transform="translate(-328.329 -81.119)"/><path class="b" d="M553.359,185.114c.4-.616.812-1.226,1.214-1.845.153-.235.252-.261.4.023a19.812,19.812,0,0,1,2.25,6.975,6.725,6.725,0,0,1-.88,4.584,5.156,5.156,0,0,1-1.722,1.619c-.211.126-.223.032-.252-.141a19.457,19.457,0,0,1-.2-5.866.694.694,0,0,0,.021-.293c-.059-.155-.109-.021-.155.035-.232-.041-.182-.22-.109-.34a1.033,1.033,0,0,0,.12-.619c.059-.331.182-.645.238-.983a3.3,3.3,0,0,0-.648-2.443C553.5,185.6,553.291,185.407,553.359,185.114Z" transform="translate(-329.759 -25.7)"/><path class="b" d="M569.706,222.859l.936-1.076c.176-.205.293-.167.372.088a22.786,22.786,0,0,1,1.2,5.279,10.418,10.418,0,0,1-.246,3.734,4.831,4.831,0,0,1-2.675,3.291c-.34.158-.458.067-.46-.317a18.674,18.674,0,0,1,.537-5.309c.038-.132.194-.293.023-.434-.235-.132-.255-.355-.24-.607a13.454,13.454,0,0,1,.293-1.745A16.23,16.23,0,0,0,569.706,222.859Z" transform="translate(-340.704 -52.953)"/><path class="b" d="M591.925,234.727a7.2,7.2,0,0,1,1.4-.557,4.124,4.124,0,0,1-.07,1.279,18.211,18.211,0,0,1-1.5,5.678,6.4,6.4,0,0,1-2.845,3.226,4.83,4.83,0,0,1-2.223.4c-.293,0-.331-.144-.214-.417a19.274,19.274,0,0,1,2.379-4.241c.15-.194.144-.2,0-.293a.267.267,0,0,1,.144-.328,2.053,2.053,0,0,0,.613-.8c.481-.8,1.021-1.563,1.467-2.4.238-.452.68-.766.833-1.293A.42.42,0,0,0,591.925,234.727Z" transform="translate(-353.132 -61.801)"/><path class="b" d="M536.555,222.107c.326-.827.326-.827.859-.15a18.94,18.94,0,0,1,3.009,5.136,6.724,6.724,0,0,1,.208,5.074,5.779,5.779,0,0,1-1.159,1.707c-.173.188-.249.094-.323-.091a20.037,20.037,0,0,1-1.264-4.476,12.864,12.864,0,0,1-.1-1.622l-.141.666a.775.775,0,0,1-.185-.525c-.07-.587-.2-1.159-.293-1.733a1.368,1.368,0,0,0-.393-.613c-.211-.255-.461-.469-.657-.739-.067-.091-.138-.208-.035-.317s.208-.029.293.032c.153.1.214.293.411.375a10.571,10.571,0,0,0-.293-1.651C536.437,222.8,536.61,222.465,536.555,222.107Z" transform="translate(-317.524 -52.823)"/><path class="b" d="M598.512,204.736c-.094-.167-.179.07-.27,0-.334-.07-.419-.334-.44-.645a6.189,6.189,0,0,1,.147-1.654,2.3,2.3,0,0,0,.038-.909,6.29,6.29,0,0,1,1.4-.83,19.944,19.944,0,0,1,3.226-1.264c.293-.094.4-.059.349.293a23.143,23.143,0,0,1-1.352,5.367,9.312,9.312,0,0,1-2.566,3.886.927.927,0,0,1-.381.249c-.114-.023-.191-.111-.331.065s-.493.5-.689.293.091-.516.276-.689a2.124,2.124,0,0,0,.672-1.555A9.62,9.62,0,0,0,598.512,204.736Z" transform="translate(-361.016 -37.22)"/><path class="b" d="M477.071,222.114c-.378.026-.654-.293-1.006-.355-.188-.035-.367-.114-.563-.138a14.741,14.741,0,0,1,2.962,1.93c.625.51,1.208,1.071,1.789,1.64.241.238.167.331-.076.46a4.5,4.5,0,0,1-4.385,0,5.842,5.842,0,0,1-1.7-1.22,1.369,1.369,0,0,1-.073-.387,15.458,15.458,0,0,0-.12-2.15c0-.144.023-.326-.123-.4s-.238.1-.337.194a3.731,3.731,0,0,1-.616.587c-.094.056-.217.123-.293,0s.026-.2.088-.273c.337-.408.713-.78,1.056-1.173A1.64,1.64,0,0,0,474,219.4a1.956,1.956,0,0,1-.073-.522c.023-.258.2-.317.4-.334.044-.023-.023-.1,0-.044s0,.041-.018.038c-.2,0-.44.085-.551-.205a8.942,8.942,0,0,1,3.646,1.059c.1.111.39.106.176.4-.317.443-.463.522-.71.293a3.365,3.365,0,0,0-.267-.276c.293.317.5.686.81.983a.452.452,0,0,1,.026.689A1.011,1.011,0,0,0,477.071,222.114Z" transform="translate(-272.624 -50.607)"/><path class="b" d="M588.067,167.553a17.427,17.427,0,0,1,3.291-2.112c.293-.161.258.079.261.243.018.827.018,1.657-.041,2.484a16.5,16.5,0,0,1-1.264,5.787,5.346,5.346,0,0,1-1.989,2.481c-.173-.065-.173-.246-.229-.393-.082-.211-.023-.528-.422-.46-.182.032-.158-.22-.059-.331a2.906,2.906,0,0,0,.519-2.053,11.754,11.754,0,0,1,.044-1.232c.018-.147.07-.331-.114-.425l.032-.185c-.015-1.068.044-2.132.038-3.2A2.054,2.054,0,0,0,588.067,167.553Z" transform="translate(-353.923 -13.193)"/><path class="b" d="M476.848,306.437a5.013,5.013,0,0,1,5.74,1.027c.088.082.258.15.208.293s-.22.076-.334.073a9.632,9.632,0,0,0-4.807,1.12c-.091.047-.217.056-.264.229a13.468,13.468,0,0,1,2.983-.733,21.353,21.353,0,0,1,2.273-.153c.37,0,.384.126.27.437a4.86,4.86,0,0,1-3.52,3.226,8.112,8.112,0,0,1-3.226.188c.346-.276.751-.053,1.144-.161a10.531,10.531,0,0,0-.1-2.5,1.71,1.71,0,0,0-.683.343c-.091.062-.194.15-.293.035s0-.246.059-.349a2.278,2.278,0,0,1,.293-.314,2.508,2.508,0,0,0,.739-2.071A1.035,1.035,0,0,0,476.848,306.437Z" transform="translate(-275.219 -112.536)"/><path class="b" d="M509.075,247.217a5.866,5.866,0,0,1-1.549-1.722,17.528,17.528,0,0,1-2.144-6.467c-.05-.293-.076-.616-.12-.924-.035-.241.053-.293.252-.211a17.623,17.623,0,0,1,3.848,1.722,6.253,6.253,0,0,1,.343,2.214,1.273,1.273,0,0,1-.1.516.293.293,0,0,0-.021.329c.053.076.161.167.067.267s-.208.023-.293-.032a.587.587,0,0,1-.129-.117c.056.106.117.205.029.32a.631.631,0,0,0-.173.393,10.654,10.654,0,0,0,.094,2.426,5.653,5.653,0,0,1,.076,1.1C509.242,247.129,509.218,247.243,509.075,247.217Z" transform="translate(-295.773 -64.406)"/><path class="b" d="M511.057,203a8.541,8.541,0,0,1,2.241,1.678c.041.076.17.123.155.2-.123.587.267,1.173-.021,1.78a1.543,1.543,0,0,0,.023,1.085,4.362,4.362,0,0,1,.138.739c0,.114.044.258-.091.293s-.144-.1-.2-.179a.337.337,0,0,0-.1-.079,6.377,6.377,0,0,0-1.314-1.276l.551.754a20.629,20.629,0,0,1,2.276,4.444c.062.15.056.255-.135.267a4.377,4.377,0,0,1-3.631-1.34,1.511,1.511,0,0,1-.208-1.079,10.405,10.405,0,0,0,0-1.373,11.634,11.634,0,0,1,.135-2.077,3.77,3.77,0,0,0,0-1.15,4.725,4.725,0,0,1-.015-1.238,2.662,2.662,0,0,0,0-.836A.48.48,0,0,1,511.057,203Z" transform="translate(-299.632 -39.773)"/><path class="b" d="M465.006,307.569c.323-.044.493.255.54.452a2.053,2.053,0,0,1-.026,1.173,2.658,2.658,0,0,1-.88,1.39.636.636,0,0,0-.293.472,2.71,2.71,0,0,1,1.135-.613,24.835,24.835,0,0,1,.106,2.83H464.3a16.823,16.823,0,0,1-4.693-1.009c-.223-.073-.258-.188-.091-.378a16.946,16.946,0,0,1,4.81-4.068A6.321,6.321,0,0,1,465.006,307.569Z" transform="translate(-263.377 -113.669)"/><path class="b" d="M633.773,307.9a5.631,5.631,0,0,1,2.25,1.068,17.826,17.826,0,0,1,3.766,3.64c.129.158.182.273-.053.346a18.14,18.14,0,0,1-5.828.956.537.537,0,0,1-.152-.053c.065-.076.152-.056.232-.053a1.574,1.574,0,0,1,.463.018c-.276-.073-.587.07-.842-.161-.164-.15-.323-.279-.041-.46a.381.381,0,0,0,.167-.378,8.731,8.731,0,0,1,.205-1.7c-.038-.076.276-.152,0-.243-.144-.044-.37-.091-.314-.367a.613.613,0,0,0,.326-.639c0-.293.153-.587.147-.912s-.032-.587-.331-.748C633.568,308.108,633.53,307.985,633.773,307.9Z" transform="translate(-386.343 -113.906)"/><path class="b" d="M523.484,282.228a5.641,5.641,0,0,1,.534.965c-.047.232-.217.238-.384.232-.422-.018-.845,0-1.267-.032a1.173,1.173,0,0,1-.727-.939c-.109.455.293.636.372.971-.188.258-.367.088-.546,0a5.084,5.084,0,0,1-.88-.912,63.88,63.88,0,0,0-3.693-6.3c-.129-.191-.129-.293.068-.4.5-.293.988-.587,1.466-.906.22-.144.293.023.4.155.88,1.173,1.7,2.361,2.493,3.59.516.8,1,1.625,1.5,2.437.12.217-.073.238-.173.308-.355.249-.437.463-.276.742.205.355.5.408.865.144C523.314,282.228,523.382,282.137,523.484,282.228Z" transform="translate(-303.935 -90.551)"/><path class="b" d="M503.9,199.23a.792.792,0,0,0-.053.719.789.789,0,0,1,.026.522,2.91,2.91,0,0,0-.05,1.188,5.958,5.958,0,0,1,0,1.8,20.37,20.37,0,0,0-.085,2.742,2.257,2.257,0,0,1-.062.745c-.076.2.056.331.179.458s.126.17-.044.191A6.893,6.893,0,0,1,502,204.806a20.955,20.955,0,0,1-1.4-6.825c-.018-.252,0-.4.293-.267a17.663,17.663,0,0,1,3.012,1.516Z" transform="translate(-292.479 -36.003)"/><path class="b" d="M608.323,281.057a8.712,8.712,0,0,1,1.288-.587c-.349-.082-.634.123-.944.138-.587-.1-.519-.716-.722-1.112-.088-.173-.082-.378-.293-.493s-.135-.246.041-.32c.349-.147-.126-.111-.035-.2a5.62,5.62,0,0,1,2.429-.76,10.078,10.078,0,0,1,3.848.132,1.674,1.674,0,0,0,.37,0c0,.293-.208.261-.37.293a2.8,2.8,0,0,0-2.2,2.255,2.956,2.956,0,0,0,0,1.141c.032.214.15.416.079.645a6.423,6.423,0,0,1-2.731,1.777c-.021-.021-.047-.044-.044-.07a3.319,3.319,0,0,0-.587-2.138C608.309,281.532,608.429,281.283,608.323,281.057Z" transform="translate(-368.047 -92.494)"/><path class="b" d="M589.7,236.07c.094.035.328-.018.179.2-.27.384-.384.88-.792,1.173-.246.182-.32.54-.463.821-.308.613-.81,1.091-1.079,1.713a5.735,5.735,0,0,1-.906,1.173A11.964,11.964,0,0,0,583.8,245.7a2.554,2.554,0,0,1-.39-1.1,5.892,5.892,0,0,1,1.3-5.1A11.982,11.982,0,0,1,589.7,236.07Z" transform="translate(-350.911 -63.144)"/><path class="b" d="M534.468,223.65c.129.018.232.088.153.229-.273.481-.047.939.053,1.393a4.7,4.7,0,0,0,.217,1.159.155.155,0,0,1-.044.2c-.073.047-.123-.026-.179-.067-.223-.161-.293-.493-.587-.572-.106.135,0,.2.065.261a5.49,5.49,0,0,0,.525.563,2.855,2.855,0,0,1,.739,1.874c.073.4.12.81.179,1.214a12.251,12.251,0,0,0,1.053,5.452c.035.076.109.164,0,.232s-.188-.018-.27-.056a5.473,5.473,0,0,1-3.091-3.954,10.755,10.755,0,0,1,.194-4.869,17.988,17.988,0,0,1,.994-3.056Z" transform="translate(-315.438 -54.366)"/><path class="b" d="M652.556,285.22a11.118,11.118,0,0,1,3.13,1.109,20.419,20.419,0,0,1,2.291,1.32c.135.088.261.147.05.293a18.868,18.868,0,0,1-5.388,2.933c-.293-.123-.267-.411-.293-.672a26.376,26.376,0,0,1,0-3.476,1.11,1.11,0,0,0-.026-.525A.78.78,0,0,1,652.556,285.22Z" transform="translate(-399.643 -97.878)"/><path class="b" d="M564.026,225.77a3.476,3.476,0,0,1,.062,1.607c-.129,1.044-.326,2.079-.525,3.112-.044.235.147.34.144.531a12.753,12.753,0,0,0-.965,6.107,5.549,5.549,0,0,1-1.684-2.6,7.245,7.245,0,0,1,.707-5.426A13.9,13.9,0,0,1,564.026,225.77Z" transform="translate(-335.023 -55.865)"/><path class="b" d="M471.056,184.315a12.747,12.747,0,0,1,2.64,1.308,4.994,4.994,0,0,1,.393.317.883.883,0,0,0-.109.88,1.338,1.338,0,0,1-.4,1.467c-.111,0-.117.018-.076.293a11.576,11.576,0,0,0-.088,2.722c0,.279,0,.531-.235.7a4.509,4.509,0,0,1-1.423-1.56,12.788,12.788,0,0,1-1.584-4.341c-.106-.587-.243-1.147-.323-1.73-.062-.446.088-.487.411-.317.085.044.179.073.27.111a.109.109,0,0,1,0,.12c-.458.522-.449.636.17,1.22-.114-.241-.273-.34-.346-.5a.4.4,0,0,1,.026-.49c.147-.141.293-.065.449.05s.194.205.317.293a1.328,1.328,0,0,0-.246-.293c-.053-.065-.15-.138-.1-.22S470.965,184.268,471.056,184.315Z" transform="translate(-270.741 -26.32)"/><path class="b" d="M615.369,172.546c-.223-.164-.349.109-.531.132-.317-.1-.458-.411-.657-.645a.185.185,0,0,1,0-.276c.076-.065.155-.021.232.023.167.1.258.293.443.39a.516.516,0,0,0,.106-.5,2.728,2.728,0,0,1-.076-.88c0-.293.018-.56.361-.651.164-.044,0-.111-.023-.164a11.363,11.363,0,0,1,3.813-.88c.827-.067.818-.056.493.786a15.449,15.449,0,0,1-2.772,4.837,3.537,3.537,0,0,1-1.024.88,4.906,4.906,0,0,1-.138-1.827c.047-.223-.141-.378-.293-.507-.2-.176-.238-.32,0-.466C615.46,172.728,615.484,172.651,615.369,172.546Z" transform="translate(-372.708 -15.798)"/><path class="b" d="M625.775,257.6a6.594,6.594,0,0,1-3.3.962c-.094,0-.194.023-.279-.05-.372-.152-.469-.44-.452-.859.026-.642.038-1.285.023-1.93a8.172,8.172,0,0,1,2.9-.8.267.267,0,0,1,.106-.056c0-.044-.05-.035-.079-.044a1.489,1.489,0,0,1-.2-.047l-.8.059c.029.05-.044-.085,0-.044l.026-.023c-.414-.141-.4-.5-.355-.851a7.864,7.864,0,0,0,.041-1.223.563.563,0,0,1,.114-.446,5.67,5.67,0,0,1,2-.147.46.46,0,0,0,.235.073c.241.018.326.109.194.361a1.05,1.05,0,0,0-.062.519,2.1,2.1,0,0,1-.173.983,1.7,1.7,0,0,0-.05.956,4.321,4.321,0,0,1-.065,1.836C625.508,257.134,625.7,257.342,625.775,257.6Z" transform="translate(-378.095 -74.447)"/><path class="b" d="M633.921,191.573a1.314,1.314,0,0,1,.587-.249c.07-.035.132,0,.194.032.469.2.478.2.745-.232a.542.542,0,0,1,.147-.147,13.823,13.823,0,0,1,2.385-.434,3.534,3.534,0,0,0,.455-.041c.466-.062.475-.059.317.393a15.721,15.721,0,0,1-2.874,5.218,4,4,0,0,1-1.173,1c-.073-.065-.123,0-.176.041-.226.167-.293.05-.293-.188a1.482,1.482,0,0,1,.023-.352c.214-.833.065-1.7.223-2.54.167-.276-.079-.123-.144-.158-.179-.153-.1-.328-.044-.51.073-.232.109-.458-.179-.557a.924.924,0,0,0-.135-.956.261.261,0,0,1-.056-.323Z" transform="translate(-386.678 -30.921)"/><path class="b" d="M478.208,254.277l-.678-.038c.144.179.34.067.437.208.053.065-.065.279.17.191a.774.774,0,0,1,.393,0l.334.106a3.646,3.646,0,0,0-.076,1.692c.029.176.041.375-.123.481s-.293-.059-.428-.161-.22-.261-.358-.364a5.163,5.163,0,0,1,.745.924c.167.293.085.425-.293.452.15.047.255,0,.352.023s.214.085.17.2-.164.062-.258.026a6.036,6.036,0,0,1-2.346-1.053,3.486,3.486,0,0,1-.367-.293c-.408-.46-.276-1.032-.267-1.572a1.727,1.727,0,0,0-.569-1.446,4.445,4.445,0,0,1-.587-.628c-.079-.1-.179-.229-.065-.349s.229,0,.331.065a2.348,2.348,0,0,1,.358.367,1.205,1.205,0,0,0,.519.39c.041-.587-.1-1.112-.1-1.654,0-.167-.047-.323.123-.422a8.347,8.347,0,0,1,3.244.337c-.17.657-.1,1.352-.27,2.009C478.551,254,478.481,254.239,478.208,254.277Z" transform="translate(-273.928 -73.968)"/><path class="b" d="M634.651,257.665c-.358-.147-.408-.44-.293-.78a4.326,4.326,0,0,0,.073-1.783,1.8,1.8,0,0,1,.17-1.311c.167-.246.032-.631.05-.953,0-.167-.056-.37.191-.443-.147-.1-.337-.07-.437-.235a13.66,13.66,0,0,1,4.282.854q.393.129.783.279c.155.059.185.147.059.293a19.472,19.472,0,0,1-4.224,3.719A2.053,2.053,0,0,1,634.651,257.665Z" transform="translate(-386.972 -74.514)"/><path class="b" d="M627.031,224.211a7.093,7.093,0,0,1,1.3-.672c-.106-.094-.2-.023-.293-.041a.49.49,0,0,1-.241-.437,21.174,21.174,0,0,0-.191-2.32,5.437,5.437,0,0,1,1.909-.443c.381-.041.669.182.607.534a9.941,9.941,0,0,0,.018,2.64,2.22,2.22,0,0,1-.947,1.983c.179-.135.331-.293.5-.446.085-.073.182-.153.293-.062a.2.2,0,0,1,.047.276c-.176.279.156.493.073.757a6.767,6.767,0,0,1-2.869,1.8,1.1,1.1,0,0,1-.355.056c-.053-.229.144-.378.147-.619a2.088,2.088,0,0,0-.745-1.681c-.141-.126-.414-.323-.205-.525s.378.085.525.252c.109.123.182.364.37.293s.123-.331.132-.513a.407.407,0,0,0-.106-.326C626.782,224.519,626.925,224.369,627.031,224.211Z" transform="translate(-381.105 -51.994)"/><path class="b" d="M520.8,179.618a5.573,5.573,0,0,1-1.414-1.948.625.625,0,0,0,0-.293,2.327,2.327,0,0,1-.047-1.293c.114-.311-.041-.7-.026-1.053a12.355,12.355,0,0,1,.047-1.42c.015-.1.05-.223-.05-.293s-.176.041-.258.1-.176.208-.293.12-.082-.27-.026-.411a1.1,1.1,0,0,1,.334-.463.924.924,0,0,0,.326-.815c-.018-.587.015-1.156-.018-1.73s-.021-.569.472-.4a5.51,5.51,0,0,1,1.311.924.777.777,0,0,0,.24,1.109.786.786,0,0,1,.243.631c0,.411.056.821.047,1.235a1.068,1.068,0,0,1-.276.848c-.17.147.026.293-.044.449a2.014,2.014,0,0,0-.076.61c.038,1.276-.059,2.552,0,3.813C521.287,179.794,521.19,179.844,520.8,179.618Z" transform="translate(-305.263 -16.18)"/><path class="b" d="M621.53,315.625c.026.707-.261,1.384-.173,2.1.032.267-.258.138-.364.252a1.34,1.34,0,0,0,1.029.487h-.76a5.812,5.812,0,0,1-4.47-1.842,5.49,5.49,0,0,1-1.024-1.956c-.109-.314.109-.246.273-.241a16.184,16.184,0,0,1,4.567.748,1.27,1.27,0,0,1,.921.452Z" transform="translate(-373.853 -118.51)"/><path class="b" d="M662.406,234a9.387,9.387,0,0,1,3.446.818c.478.188.939.416,1.408.628.158.073.273.15.07.334a15.515,15.515,0,0,1-4.561,3.047,1.256,1.256,0,0,1-.2.047c-.208-.032-.258-.188-.258-.381,0-.352-.018-.7-.023-1.059a1.933,1.933,0,0,0-.214-1.041l.2-.044c-.182-.079-.387,0-.557-.126.516-.308.44-.856.481-1.358C662.227,234.566,662.139,234.235,662.406,234Z" transform="translate(-406.347 -61.681)"/><path class="b" d="M637.011,225.535c-.135-.117-.109-.337-.273-.455-.114-.082-.032-.205.076-.293s.135-.129.065-.22c-.106-.135-.17,0-.229.067a5.222,5.222,0,0,1-.88.754,1.364,1.364,0,0,1,.5-.683,2.333,2.333,0,0,0,.634-2.285,6.214,6.214,0,0,1,0-1.892.546.546,0,0,0-.49-.689,2.76,2.76,0,0,1,1.059-.147,20.02,20.02,0,0,1,3.349.067c.22.026.32.076.194.314a20.144,20.144,0,0,1-3.866,5.37A.669.669,0,0,1,637.011,225.535Z" transform="translate(-388.008 -51.541)"/><path class="b" d="M467.244,217.949a2.074,2.074,0,0,0,.669.191c0,.1-.047.147-.117.138-.334-.044-.323.185-.293.414a3.725,3.725,0,0,1,.12.906,2.042,2.042,0,0,1-.713,1.288c-.326.367-.607.634-.88.988.408-.1.6-.475.88-.727.109-.094.179-.323.358-.226a.461.461,0,0,1,.191.463c-.062.786.293,1.557.085,2.346-.035.129.273.232,0,.337a9.7,9.7,0,0,1-1.774-1.9,22.854,22.854,0,0,1-2.4-3.924c-.109-.223-.182-.375.161-.381a21.136,21.136,0,0,1,3.71.091Z" transform="translate(-266.111 -50.243)"/><path class="b" d="M582.879,277.884c-1.428,2.7-2.807,5.432-4.162,8.174a.842.842,0,0,1-1.047.346,2.17,2.17,0,0,0-.824-.044c-.249,0-.5-.021-.745-.044a.378.378,0,0,1-.39-.455,6.508,6.508,0,0,1,.587-1.138q2.734-2.933,5.473-5.866a7.393,7.393,0,0,0,.563-.651C582.469,278.028,582.618,277.84,582.879,277.884Z" transform="translate(-345.559 -92.689)"/><path class="b" d="M491.109,170.917a6.971,6.971,0,0,1-1.839-2.734,18.428,18.428,0,0,1-1.191-4.637c-.021-.141-.085-.32.023-.422s.255.021.384.065a15.726,15.726,0,0,1,2.971,1.317,15.726,15.726,0,0,0-.2,2.9c0,1.076-.047,2.153.026,3.226C491.291,170.765,491.3,170.914,491.109,170.917Z" transform="translate(-283.608 -11.565)"/><path class="b" d="M644.792,284.669c.214.191.038.255-.094.326s-.261.044-.164.217a2.74,2.74,0,0,1,.135,1.854c-.138.833.109,1.625.038,2.434a1.021,1.021,0,0,0,.161.836,5.868,5.868,0,0,1-1.906.434c-.328-.182-.364-.463-.364-.845a6.067,6.067,0,0,1,.308-1.936c.088-.261,0-.346-.223-.375s-.525.088-.745-.135a4.358,4.358,0,0,1,1.358-.059c.273.1.557-.076.771.065-.088,0-.194-.091-.293-.158l-1.467-.2a3.321,3.321,0,0,0-.815-.029c-.161,0-.252-.076-.2-.235a3.407,3.407,0,0,0-.044-1.983.27.27,0,0,1,.044-.167,5.45,5.45,0,0,1,3.021-.106,3.289,3.289,0,0,1,.478.065Z" transform="translate(-391.879 -97.327)"/><path class="b" d="M659.257,264.538c.481-.2,1.009-.126,1.5-.352h-1.408a.164.164,0,0,0-.153-.044c-.323.05-.422-.05-.384-.434.05-.493.1-.991.1-1.49a4.757,4.757,0,0,1,3.1-.123c.138.041.273,0,.4.044a4.992,4.992,0,0,0-.123,1.818,7.855,7.855,0,0,1-.147,1.924c-.047.208.161.437-.059.616a5.337,5.337,0,0,1-3.1.727.273.273,0,0,1,.414-.041.686.686,0,0,1-.167-.487C659.266,265.978,659.155,265.256,659.257,264.538Z" transform="translate(-404.286 -81.393)"/><path class="b" d="M563.63,150c.205.1,0,.214,0,.32-.047.818-.126,1.634-.126,2.452a6.8,6.8,0,0,1-.258,1.936,10.115,10.115,0,0,0-.818,5.153,3.893,3.893,0,0,1-1.288-1.745,5.61,5.61,0,0,1,.088-4.3A12.18,12.18,0,0,1,563.63,150Z" transform="translate(-334.991 -2.318)"/><path class="b" d="M518.243,247.247l-.293-.4c.279-.041.411.276.686.258-.37-.176-.252-.358-.132-.654a2.846,2.846,0,0,0,.035-1.346c-.044-.466-.293-.821-.2-1.279a7.333,7.333,0,0,1,3.919,4.9,5.649,5.649,0,0,1-.32,3.226,14.429,14.429,0,0,0-.962-1.906,10.536,10.536,0,0,0-2.141-2.561c-.065-.056-.147-.293-.293-.065C518.4,247.446,518.317,247.361,518.243,247.247Z" transform="translate(-304.745 -68.628)"/><path class="b" d="M492.368,282.482a8.453,8.453,0,0,1-1.76-1.261c-.323-.264-.613-.587-.918-.88a1.558,1.558,0,0,0,.54-1.373,3.085,3.085,0,0,1,.642-1.76,6.674,6.674,0,0,1,2.91.079,1.044,1.044,0,0,0,.246.015c.191.041.293.026.135.326a4.006,4.006,0,0,0-.358,1.238c-.015.132-.1.276-.079.372s-.343.062-.053.211c.07.035-.062.135-.135.15-.158.035-.328-.029-.487.041-.056.032-.094.117-.047.138.522.229.249.648.117.909a1.651,1.651,0,0,0-.173,1.006C493.007,282.239,492.8,282.494,492.368,282.482Z" transform="translate(-284.773 -92.131)"/><path class="b" d="M590.177,206.7c.276.176.191.455.135.686a7.958,7.958,0,0,0-.214,1.728.859.859,0,0,0,.337.792,18.731,18.731,0,0,0-1.76,1.854,12.612,12.612,0,0,0-1.631,2.807c-.021.05-.053.094-.1.188a2.117,2.117,0,0,1-.314-.962,6.177,6.177,0,0,1,1.276-5.077,8.475,8.475,0,0,1,2.273-2.015Z" transform="translate(-353.2 -42.388)"/><path class="b" d="M437.6,262.181a.419.419,0,0,1-.264-.164c-.015-.114-.065-.235.062-.314.411-.261.634-.724.991-1.047a.88.88,0,0,0,.2-.968,8.773,8.773,0,0,1,2.138-.631,6.1,6.1,0,0,0,.815-.111c.111-.041.334.047.173.185-.4.34-.088.763-.194,1.12-.076.264.293.569-.073.795.065.062.22-.038.214.141l-.238.023c0,.047-.138.053-.05.088a1.206,1.206,0,0,0,.716.056l.32.021a6.917,6.917,0,0,1-.138,2.578c-.07.229-.232.126-.37.1a7.841,7.841,0,0,1-2.458-.783c-.238-.1-.458-.246-.686-.372.044-.46-.205-.88-.179-1.335,0-.232-.173-.293-.343-.123a2.954,2.954,0,0,0-.639.742Z" transform="translate(-247.76 -79.302)"/><path class="b" d="M549.231,196.31c.035.2.15.4-.088.566-.12.085-.1.22,0,.326a7.338,7.338,0,0,1-.27,1.467,13.9,13.9,0,0,0,.167,4.8c-1.663-.827-2.956-3.393-2.54-5.9.238-.273.587-.293.88-.469a2.207,2.207,0,0,0,.408-3.338.323.323,0,0,1-.07-.109,2.053,2.053,0,0,1,.252-.636c.229-.056.358.106.481.267a2.725,2.725,0,0,1,.44,2.681c-.088.258-.185.516-.258.8C548.958,196.752,548.938,196.313,549.231,196.31Z" transform="translate(-324.866 -32.707)"/><path class="b" d="M593.287,306a20.825,20.825,0,0,1,4.373-2.766,14.68,14.68,0,0,1,2.3-.853c.2-.056.293-.021.37.194.123.358.276.707.425,1.056.073.167.053.258-.109.349a35.69,35.69,0,0,0-3.7,2.379,1.865,1.865,0,0,0-.625-.085c-.927-.035-1.862.293-2.778-.073C593.436,306.173,593.269,306.214,593.287,306Z" transform="translate(-357.984 -109.99)"/><path class="b" d="M498.5,174.405a.22.22,0,0,0,.094-.226,29.268,29.268,0,0,1,0-4.693,7.149,7.149,0,0,0,0-.88.6.6,0,0,1,.255-.587,10.873,10.873,0,0,1,1.66,1.247,5.16,5.16,0,0,1-.059,2.475.205.205,0,0,1-.293.2l-.983-.924c-.079,0-.135-.067-.223-.1.1.047.111.138.147.208a13.415,13.415,0,0,1,2.546,3.924c.123.258.047.317-.158.334A3.646,3.646,0,0,1,498.5,174.405Z" transform="translate(-290.999 -15.053)"/><path class="b" d="M570.719,326.444l-1.367,1.308a2.147,2.147,0,0,0-.7.757l-.478.569c-.293.17-.422.513-.639.763-.076.088-.123.267-.267.079-.053-.126-.126-.235-.267-.243a5.153,5.153,0,0,0-1.431.035.463.463,0,0,0-.37.46c-.018.161.032.367-.182.443-.226-.293-.132-.648-.182-.971a4.453,4.453,0,0,0-.859-2.068.566.566,0,0,1-.158-.293q.015-.088.091-.05c.293,0,.179-.346.331-.469a10.381,10.381,0,0,0,2.64.158.593.593,0,0,1,.5.132c0,.059-.041.15-.021.167.1.082.132-.044.176-.094.408-.46.807-.927,1.214-1.384a4.153,4.153,0,0,1,.308-.293.912.912,0,0,1,.654.422,1.006,1.006,0,0,0,.906.422A.152.152,0,0,1,570.719,326.444Z" transform="translate(-337.161 -126.308)"/><path class="b" d="M526.512,177.292c-.044-.141-.208-.2-.226-.39.32.056.446-.185.455-.437.021-.61,0-1.22-.032-1.83,0-.208-.214-.331-.349-.478-.449-.487-.452-.569-.023-1.027.123.065.27.094.331.252-.082.1-.243.079-.293.226,0,.091.062.07.109.091s.129,0,.173-.109a.079.079,0,0,1,.132-.041,8.705,8.705,0,0,1,3.3,4.353.6.6,0,0,1-.155.642,3.345,3.345,0,0,0-.827,2.106c0,.144.038.343-.188.375a11.712,11.712,0,0,0-1.833-3.305c-.111-.144-.188-.358-.422-.34C526.579,177.415,526.547,177.354,526.512,177.292Z" transform="translate(-310.447 -18.664)"/><path class="b" d="M498.82,288.618c.46-.173.587-.417.469-.947a.677.677,0,0,1,.167-.76c.167-.144.053-.384.144-.534.194-.326-.12-.258-.214-.355-.194-.2-.053-.229.106-.252a.07.07,0,0,1,.026.067q0,.038-.021.038a17.966,17.966,0,0,1,2.346.8,20.182,20.182,0,0,1,2.863,1.672A4.48,4.48,0,0,1,498.82,288.618Z" transform="translate(-291.226 -98.267)"/><path class="b" d="M467.791,293.289a17.761,17.761,0,0,1,3.083.792c.249.079.158.208.059.349a4.546,4.546,0,0,1-3.323,2.074,4.462,4.462,0,0,1-1.842-.076c-.041-.507,0-1.018-.07-1.528-.05-.317.249-.507.293-.795a5.035,5.035,0,0,1,.437-.792.293.293,0,0,1,.317-.147c.27-.021.293.147.229.364a4.143,4.143,0,0,0-.217.622,2.174,2.174,0,0,0,.522-.651.37.37,0,0,1,.513-.211Z" transform="translate(-267.813 -103.488)"/><path class="b" d="M515.762,315.574a1.138,1.138,0,0,1-.452-.241c-.079-.2-.314-.205-.419-.372a1.046,1.046,0,0,0-.372-.267c-.07-.041-.155-.085-.114-.2a.17.17,0,0,1,.2-.123c.329.1.648-.12.98,0,.176.059.317-.067.437-.2a9.712,9.712,0,0,0,.66-.73c.109-.144.22-.27.417-.179a16.742,16.742,0,0,1,3.074,2.37c.431.425.865.842,1.282,1.285,0,.1-.05.144-.117.12a6.859,6.859,0,0,0-2.434.041c-.17,0-.411-.062-.408.267-.331.123-.458-.241-.7-.34h0A11.755,11.755,0,0,0,515.762,315.574Z" transform="translate(-302.231 -117.676)"/><path class="b" d="M449.244,229.766l-.246.023c.352.317.836.308,1.126.663a2.493,2.493,0,0,0-.15,1.159v1.1c0,.367-.144.607-.531.422a5.572,5.572,0,0,1-1.971-1.423c.023-.067.176.05.138-.123a10.753,10.753,0,0,1-.1-2.6,2.693,2.693,0,0,0-.628-1.76c-.05-.065-.138-.109-.1-.22a12.675,12.675,0,0,1,3.15.642,12.145,12.145,0,0,0-.059,1.493c0,.17.035.387-.147.472s-.293-.076-.419-.205a.8.8,0,0,0-.252-.214,1.065,1.065,0,0,1,.361.437C449.479,229.8,449.376,229.813,449.244,229.766Z" transform="translate(-254.444 -56.734)"/><path class="b" d="M469.083,251.507a3.5,3.5,0,0,0,.032,1.141,4.3,4.3,0,0,0,.1.915.164.164,0,0,1-.053.2c-.085.067-.147,0-.217-.044-.39-.249-.622-.7-1.012-.944-.129.135,0,.2.047.261a3,3,0,0,0,.44.466c.856.634.8,1.56.722,2.493,0,.135-.085.293.079.329.334.076.141.276.117.44a17.277,17.277,0,0,1-3.616-3.578c-.188-.235-.355-.487-.546-.719s-.1-.34.144-.39a12.925,12.925,0,0,1,3.044-.484C468.6,251.595,468.833,251.448,469.083,251.507Z" transform="translate(-267.375 -74.043)"/><path class="b" d="M583.3,318.8a.654.654,0,0,1-.827-.22,3.629,3.629,0,0,0-.754-.663,25.608,25.608,0,0,1,3.393-3.13c1.024.475,2.085.141,3.132.15.232,0,.437-.111.522.22-.106.088-.182.22-.326.252-.191.021-.372.05-.466.264-.719.428-1.466.815-2.162,1.282-.469.367-.977.672-1.434,1.056h0C583.984,318.213,583.75,318.665,583.3,318.8Z" transform="translate(-349.811 -118.775)"/><path class="b" d="M578.59,280.224a51.838,51.838,0,0,1,2.76-4.883c.607-.968,1.267-1.895,1.927-2.822.167-.238.293-.331.554-.117a14.214,14.214,0,0,0,1.173.807c.158.1.235.205.07.372-1.8,1.871-3.546,3.813-5.335,5.684-.293.311-.572.642-.88.939C578.8,280.268,578.71,280.491,578.59,280.224Z" transform="translate(-347.599 -88.734)"/><path class="b" d="M527.937,325.931c-.2-.367-.217-.452.293-.428a18.854,18.854,0,0,0,2.033-.155c.188,0,.337-.059.475.114.059.073.135.1.2,0a8.237,8.237,0,0,1,1.267,1.56l-.34-1.032a.273.273,0,0,1,.293-.082,7.569,7.569,0,0,0,2.088.129c.158,0,.334-.065.46.109a.373.373,0,0,1,0,.34,4.344,4.344,0,0,1-1.135,1.211c-.138.109-.246-.065-.372-.12.123.114.235.229.123.408a.346.346,0,0,1-.37.138.768.768,0,0,1-.311-.117.812.812,0,0,0-.722-.065,2.411,2.411,0,0,1-1.173.091.425.425,0,0,0-.434.179c-.2.082-.264-.111-.358-.214a18.636,18.636,0,0,0-1.6-1.557h0C528.2,326.28,527.984,326.186,527.937,325.931Z" transform="translate(-311.711 -126.229)"/><path class="b" d="M651.7,242.158c.217.1.311.2.293.528,0,.534.044,1.079.026,1.619a.452.452,0,0,0,.167.331,4.147,4.147,0,0,1-4.643-.587c-.211-.185-.519-.39-.507-.639,0-.185.4-.235.634-.323A10.936,10.936,0,0,1,651.7,242.158Z" transform="translate(-395.972 -67.445)"/><path class="b" d="M518.107,255.48c.135,0,.205.114.293.173a11.255,11.255,0,0,1,1.98,2.748,13.633,13.633,0,0,1,1.041,2.132,4.077,4.077,0,0,1-3.52-.862,2.226,2.226,0,0,0,0-1.1,11.949,11.949,0,0,1-.141-2.616v-.044C517.735,255.633,517.855,255.5,518.107,255.48Z" transform="translate(-304.609 -76.861)"/><path class="b" d="M551.74,307.166c.044-.484.334-.475.7-.452.648.038,1.3.021,1.953.018.2,0,0,.258.229.249.067-.079,0-.238.035-.361.1.95.129,1.9.164,2.857.053.543-.56,1.173-1.047,1.079s-.9.047-1.343-.056c-.276-.065-.194.367-.422.39A27.706,27.706,0,0,1,551.74,307.166Z" transform="translate(-328.624 -113.001)"/><path class="b" d="M519.2,212.6c.153-.032.164.188.326.2a8.313,8.313,0,0,0-.211-1.065,1.722,1.722,0,0,1,.05-1.2,1.249,1.249,0,0,0,.023-.815c-.056-.217-.293-.469,0-.7a1.214,1.214,0,0,0-.1-.264,6.632,6.632,0,0,1,2.035,2.83,6.109,6.109,0,0,1,.032,4.479,2.455,2.455,0,0,1-.1.241c0,.023-.041.035-.12.1A13.785,13.785,0,0,0,519.2,212.6Z" transform="translate(-305.628 -43.844)"/><path class="b" d="M621.727,307.128c0,.067-.182.085-.044.191a1.047,1.047,0,0,1,.422,1.288,1.894,1.894,0,0,0-.1.906c.062.293-.208.129-.308.205a.817.817,0,0,1-.15.073c-.141.1-.229,0-.314-.1a9.547,9.547,0,0,0-3.69-1.068c-.384-.038-.768-.044-1.173-.065-.026-.158.091-.238.179-.314a4.721,4.721,0,0,1,4.986-1.141.771.771,0,0,0,.191.023Z" transform="translate(-374.296 -113.134)"/><path class="b" d="M592.643,217.62a.293.293,0,0,1,.217.334,17.575,17.575,0,0,1-.117,2.983,1.267,1.267,0,0,1-.422.727,2.551,2.551,0,0,0-.531.821c.135-.252.534-.023.61-.525.044-.293.267.047.381.173a4.375,4.375,0,0,1-3.226.8c-.267-.026-.364-.094-.214-.4a20.239,20.239,0,0,1,2.918-4.57,3.717,3.717,0,0,1,.384-.337Z" transform="translate(-355.147 -50.105)"/><path class="b" d="M669.849,267.1c-.17-.5.059-.965.073-1.449.026-.792.015-1.584,0-2.376,0-.238.029-.428.252-.531a9.6,9.6,0,0,1,2.37.73c.387.152.763.34,1.141.513.2.094.293.191.07.4a14.136,14.136,0,0,1-3.443,2.467C670.142,266.922,670.049,267.1,669.849,267.1Z" transform="translate(-412.047 -81.991)"/><path class="b" d="M499.074,303.526q-.818-.466-1.637-.93c-.129-.073-.123-.164-.085-.293.173-.56.346-1.12.5-1.684.05-.179.088-.243.279-.158a36.619,36.619,0,0,1,4.751,2.429c.167.109.352.188.531.293.021.132.179.255.029.4s-.223.059-.346.021a3.643,3.643,0,0,0-.986-.047c-.742-.023-1.484.038-2.226-.038a2.54,2.54,0,0,1-.326-.062c-.109-.015-.323-.246-.37.106A.293.293,0,0,1,499.074,303.526Z" transform="translate(-290.172 -108.622)"/><path class="b" d="M547.7,155.46a7.019,7.019,0,0,1,1.651,5.793,4.25,4.25,0,0,1-1.326,2.346,11.474,11.474,0,0,0-.721-4.382,9.259,9.259,0,0,0,.273-2.015c.023-.422,0-.851.015-1.273a.672.672,0,0,1,.109-.469Z" transform="translate(-325.486 -6.177)"/><path class="b" d="M501.13,280.338v-.106c.167-.188.393-.029.587-.111,0-.123-.208-.076-.153-.12.44-.349.188-.971.5-1.39.091-.123-.065-.472.243-.566l-.164-.114a5.057,5.057,0,0,1,4.106,3.341,2.141,2.141,0,0,1,.217,1.076A9.641,9.641,0,0,0,501.13,280.338Z" transform="translate(-292.858 -92.726)"/><path class="b" d="M526.456,187.32l.153.085a17.374,17.374,0,0,1,2.346,5.6c.053.188.082.352-.2.326a4.5,4.5,0,0,1-2.819-1.2c.114-.021.208.056.37.153a12.648,12.648,0,0,1-.023-1.833c.041-.88,0-1.745,0-2.616A.557.557,0,0,1,526.456,187.32Z" transform="translate(-310.391 -28.692)"/><path class="b" d="M487.52,255.2a2,2,0,0,0,.408-1.417,1.574,1.574,0,0,1,.264-1.091,5.264,5.264,0,0,1,3.957,4.649c-.478-.311-.941-.622-1.414-.918A10.69,10.69,0,0,0,487.52,255.2Z" transform="translate(-283.24 -74.889)"/><path class="b" d="M486.382,266.1l.214-.026c-.147-.214-.346-.129-.531-.188.091-.12.293,0,.323-.179s-.079-.264-.158-.384a9.678,9.678,0,0,0-.88-1.038c.416-.021.563.34.812.528.073.056.126.194.235.141s.111-.208.088-.317a6.364,6.364,0,0,1-.082-1.1.88.88,0,0,1,.249-.716,16.558,16.558,0,0,1,3.86,2.176A4.077,4.077,0,0,1,486.382,266.1Z" transform="translate(-281.706 -82.048)"/><path class="b" d="M486.407,224.587c-.229-.293.053-.446.179-.563.34-.32.293-.546-.029-.842a10.179,10.179,0,0,1-.774-.906c-.044-.053-.111-.106-.047-.182s.129,0,.185.021a.337.337,0,0,1,.132.1c.252.414.434.463.766,0,.214-.293-.1-.258-.079-.387a5.78,5.78,0,0,1,3.27,5.611,11.6,11.6,0,0,0-3.05-2.508C486.771,224.833,486.589,224.707,486.407,224.587Z" transform="translate(-281.96 -53.08)"/><path class="b" d="M482.35,193.008a1.358,1.358,0,0,0,.346-1.578.5.5,0,0,1,.252-.73c2.449,1.467,3.279,4.5,2.308,6.341a10.025,10.025,0,0,0-2.385-3.52C482.658,193.4,482.4,193.328,482.35,193.008Z" transform="translate(-279.586 -31.081)"/><path class="b" d="M552.63,317.784c.17-.587.17-.572.818-.458.393.07.792-.129,1.2.056.164.073.757-.742.795-1.012q.2,1.7.4,3.405c.041.349.106.692.161,1.038h-.044c-.191.085-.293-.076-.437-.164a2.033,2.033,0,0,0-2.153-.191c-.158.076-.311.205-.5.111a.463.463,0,0,1-.076-.472,9.322,9.322,0,0,0-.126-1.786C552.653,318.133,552.639,317.96,552.63,317.784Z" transform="translate(-329.253 -119.891)"/><path class="b" d="M583.489,172.77c.138.018.22.053.2.249a22.76,22.76,0,0,1-.1,2.323.416.416,0,0,0,.018.217,1.194,1.194,0,0,1-.088,1.021,8.242,8.242,0,0,0-1.637,2.223c-.091.161-.188.32-.293.481-.293-.176-.167-.469-.179-.719a20.406,20.406,0,0,0-.023-2.47c-.053-.293.088-.622-.056-.924-.079.018-.144.176-.273.085A9.831,9.831,0,0,1,583.489,172.77Z" transform="translate(-349.345 -18.41)"/><path class="b" d="M537.478,310a11.982,11.982,0,0,1,1.018,2.288,2.249,2.249,0,0,0,.214.411c0,.109-.076.109-.144.1a11.2,11.2,0,0,0-2.91.032.239.239,0,0,1-.114-.044l-1.3-2.933c.023-.129.07-.217.22-.191a14.735,14.735,0,0,0,2.185.067A1.068,1.068,0,0,1,537.478,310Z" transform="translate(-316.257 -115.145)"/><path class="b" d="M441.133,226.831a2.021,2.021,0,0,1,.821,1.587c.041.707,0,1.42,0,2.129a1.314,1.314,0,0,0,.094.642c.085.164.1.434-.235.355a14.074,14.074,0,0,1-2.666-3.687c-.554-1-.537-1.024.569-1.076a6.086,6.086,0,0,1,1.417.05Z" transform="translate(-248.802 -56.565)"/><path class="b" d="M651.855,233.918a7.959,7.959,0,0,0-.138,1.648c-.047.44-.217.54-.543.587a9.183,9.183,0,0,0-4.385.991A4.554,4.554,0,0,1,651.855,233.918Z" transform="translate(-395.796 -61.599)"/><path class="b" d="M608.939,172.16c.044.056.191-.091.173.117,0,.111,0,.17-.126.161a.226.226,0,0,0-.27.252c.026.387-.109.789.1,1.173.156.293-.238.455-.067.83-.358-.246-.51-.587-.906-.792a6.151,6.151,0,0,0,.71.968,9.931,9.931,0,0,0-3.209,3.03,3.637,3.637,0,0,1,0-1.845,5.065,5.065,0,0,1,2.572-3.405,10.284,10.284,0,0,1,1.024-.49Z" transform="translate(-366.422 -17.978)"/><path class="b" d="M609.988,180.811c.091.021.223-.138.276.059.041.15-.053.205-.173.246a1.659,1.659,0,0,0-.252.141c.267.323.663.525.458,1.1a2.1,2.1,0,0,0,.12,1.173c.047.167-.044.235-.05.349a3.649,3.649,0,0,1-3.687.557c-.185-.067-.229-.153-.1-.308A13.053,13.053,0,0,1,609.988,180.811Z" transform="translate(-367.327 -24.063)"/><path class="b" d="M572.935,305.09c.126.484.519.334.812.364a5.014,5.014,0,0,1,1.194.041c.425.161.683-.073,1-.208l-1.335,2.933a2.032,2.032,0,0,1-.994.214c-.37,0-.736,0-1.106.018a.76.76,0,0,1-.73-.8,21.442,21.442,0,0,1,1.159-2.558Z" transform="translate(-342.783 -111.92)"/><path class="b" d="M518.508,167.77c-.135.243-.255-.135-.393,0,.1.792.026,1.6.053,2.405a.56.56,0,0,1-.238.516,1.03,1.03,0,0,0-.51.848,3.237,3.237,0,0,1,.375-.293c.123-.073.158-.194.293-.088a.334.334,0,0,1,.082.326,8.651,8.651,0,0,0,0,2.546.149.149,0,0,1,0,.088c-.293.463-.056.927,0,1.39a.211.211,0,0,1-.106.22,12.355,12.355,0,0,1-1.117-4.253,25.075,25.075,0,0,1-.106-4.341c.018-.314.085-.355.331-.205A10.064,10.064,0,0,1,518.508,167.77Z" transform="translate(-303.928 -14.222)"/><path class="b" d="M577.948,180.724l.329-.214a1.094,1.094,0,0,1,.106.739c-.085.293.106.669.07.994-.079.727.029,1.467-.053,2.176a.616.616,0,0,0,.079.334,16.045,16.045,0,0,0-.965,2.874C576.367,186.177,576.191,183.038,577.948,180.724Z" transform="translate(-346.221 -23.879)"/><path class="b" d="M503.216,309.657c.238-.147.018-.311-.026-.557.757.686,1.6.364,2.385.458a5.965,5.965,0,0,1,1.833.12c.293.126-.038-.293.15-.378a10.341,10.341,0,0,1,1.622,1.041c-.226,0-.276.205-.393.337-.241.261-.487.516-.724.78a.334.334,0,0,1-.411.117c-.378-.205-.733.261-1.115-.021.161.22.484.185.522.507a2.48,2.48,0,0,1-.988-.469,5.279,5.279,0,0,1-1.4-.921C504.2,310.364,503.7,309.986,503.216,309.657Z" transform="translate(-294.314 -114.754)"/><path class="b" d="M583.37,186.171l.179-.091c0,.551-.041,1.12,0,1.681s-.164,1.094-.153,1.651c0,.188-.229.293-.334.431-.062.085-.226.153-.126.293s.194-.015.279-.085a1.146,1.146,0,0,1,.106-.067l.293,1.088a4.168,4.168,0,0,1-2.525.839c-.293.015-.164-.2-.126-.328a22.586,22.586,0,0,1,1.267-3.5A7.541,7.541,0,0,1,583.37,186.171Z" transform="translate(-349.232 -27.816)"/><path class="b" d="M449.9,261.072c-.12-.141-.293-.029-.5-.144.54,0,.293-.293.255-.528a4.4,4.4,0,0,0-.079-1.12c-.053-.129.317-.138.355-.446-.326.24-.648.132-.965.109a4.591,4.591,0,0,1,5.526,2.69c-.654-.173-1.27-.411-1.915-.522A10.04,10.04,0,0,0,449.9,261.072Z" transform="translate(-255.997 -79.179)"/><path class="b" d="M602.37,289.38c.065.044.293-.073.161.164s0,.387.132.587a2.9,2.9,0,0,1,.466,1.217c.029.194-.047.452.293.372a.107.107,0,0,1,.114.1.12.12,0,0,1-.117.147c-.211.015-.293.141-.276.352a4.08,4.08,0,0,1-3.88-.5c-.167-.114-.252-.208-.032-.384A15.427,15.427,0,0,1,602.37,289.38Z" transform="translate(-362.093 -100.818)"/><path class="b" d="M538.68,319.82a7.589,7.589,0,0,1,3.168-.088,12.773,12.773,0,0,1,.839,2.229c.044.164.062.346.238.422a.748.748,0,0,1,.085.434.226.226,0,0,1-.155.246.912.912,0,0,1-.293,0c-.328-.032-.4-.179-.191-.443.144-.179.15-.293-.032-.419,0-.079-.035-.117-.132-.114-.587.015-1.173,0-1.76.038-.334.026-.587-.27-.909-.191Z" transform="translate(-319.395 -122.18)"/><path class="b" d="M454.034,231.3c.088-.018.135,0,.062-.15-.138-.258-.463-.358-.546-.766a1.9,1.9,0,0,1,.634.487c.079.106.161.241.293.188s.07-.232.073-.355v-.968a.786.786,0,0,1,.164-.566,4.831,4.831,0,0,1,3.291,4.854,10.144,10.144,0,0,0-2.241-1.895A18.679,18.679,0,0,0,454.034,231.3Z" transform="translate(-259.233 -58.267)"/><path class="b" d="M620.775,233.65h.041c-.223.367.249.61.147.974-.053.191,0,.463-.194.543s-.326-.158-.452-.293c-.026-.032-.035-.085-.065-.111-.123-.114-.22-.411-.4-.235-.12.114.112.279.217.355a2.45,2.45,0,0,1,.856,1.906c.023.205-.22.317-.293.5a4.214,4.214,0,0,1-3.338-.551c-.293-.167-.065-.273.038-.372A18.235,18.235,0,0,1,620.775,233.65Z" transform="translate(-374.849 -61.433)"/><path class="b" d="M542.89,162.883c0-.4.132-.777.126-1.194a30.311,30.311,0,0,1,.038-3.1c.044-.5-.094-1.029-.041-1.54a1.531,1.531,0,0,0-.1-.848c.091-.381.346-.636.587-.587a.587.587,0,0,1,.375.73,5.114,5.114,0,0,0-.059,2.346c-.12.258.123.4.173.6a17.592,17.592,0,0,1,.481,2.948c.032.425.032.854.068,1.279.021.264-.065.317-.293.229A3.813,3.813,0,0,1,542.89,162.883Z" transform="translate(-322.37 -6.282)"/><path class="b" d="M453,269.948c.5-.05.361-.522.408-.8a8.162,8.162,0,0,0,.018-1.361,1.03,1.03,0,0,1,.082-.513,12.461,12.461,0,0,1,3.646.751c.314.1.114.255.026.378A4.03,4.03,0,0,1,453,269.948Z" transform="translate(-258.845 -85.193)"/><path class="b" d="M627.244,202.439c.026.047.088.111.076.141a4.256,4.256,0,0,0-.07,1.39,6.468,6.468,0,0,0-.153,1.663c.073.085.2-.293.326-.07a3.724,3.724,0,0,1-3.813.411,14.99,14.99,0,0,1,3-3.168.613.613,0,0,1,.636-.367Z" transform="translate(-379.415 -39.374)"/><path class="b" d="M461.261,285.457l-1.821.021c-.153-.15-.1-.358-.129-.543a.962.962,0,0,0-1.54-.716.88.88,0,0,0-.155,1.15.331.331,0,0,0,.364.15c.135-.044.132-.173.126-.293a.458.458,0,0,1,.334-.534.352.352,0,0,1,.422.205.478.478,0,0,1-.094.666c-.079.141-.235.059-.367.147l.293.029a.777.777,0,0,1-1.038.5,1.39,1.39,0,0,1-1.015-1.065,1.725,1.725,0,0,1,.437-1.669,1.847,1.847,0,0,1,3.112.985c.053.185.079.375.117.563.015.073.047.153.129.144s.109-.088.109-.164a2.574,2.574,0,0,0-.944-2.024,1.173,1.173,0,0,0-.569-.082c-.229-.018-.475.07-.678-.117a5.465,5.465,0,0,1,2.2.041.736.736,0,0,1,.472.117c-.106.126-.021.232.018.358A3.314,3.314,0,0,1,461.261,285.457Z" transform="translate(-261.375 -96.097)"/><path class="b" d="M623.427,221.83c.047.023.138.053.135.073-.021.587.211,1.132.135,1.719a1.713,1.713,0,0,0,.158.962,14.791,14.791,0,0,0-2.64,1.252c-.311-.428-.634-.845-.983-1.241-.1-.111-.235-.264-.059-.411s.238.065.331.153a2.7,2.7,0,0,0,.428.411c.114.067.235.1.317-.059a2.366,2.366,0,0,0-.232-1.534A5.435,5.435,0,0,1,623.427,221.83Z" transform="translate(-376.926 -53.08)"/><path class="b" d="M568.424,324.842H566.2a1.08,1.08,0,0,1-.924-.293,12.614,12.614,0,0,1,.745-1.956,1.094,1.094,0,0,1,.7-.2,10.981,10.981,0,0,0,1.76-.059c.4-.07.487.217.531.546Z" transform="translate(-338.193 -124.099)"/><path class="b" d="M601.238,280.6l.475.026c-.082.311-.355.191-.587.34.642.088.446.7.633,1.056a1.883,1.883,0,0,0,.469.7,10.765,10.765,0,0,0-3.778,2.206C598.247,283.433,599.657,281.26,601.238,280.6Z" transform="translate(-361.621 -94.613)"/><path class="b" d="M481.29,202.738a9.716,9.716,0,0,0,.079-2.223,4.261,4.261,0,0,1,.167-1.335.557.557,0,0,1,.481.446,16.263,16.263,0,0,1,1.974,3.2c.293.613.293.631-.343.66A3.3,3.3,0,0,1,481.29,202.738Z" transform="translate(-278.837 -37.073)"/><path class="b" d="M444.581,290.094a17.535,17.535,0,0,1-3.361-2.258,18.341,18.341,0,0,1,2.951-1.581c.211-.082.34-.029.293.235A3.6,3.6,0,0,0,444.9,289C445.007,289.489,444.968,289.589,444.581,290.094Z" transform="translate(-250.52 -98.584)"/><path class="b" d="M626.24,195.915c.314,0,.44.255.276.607-.07.153-.153.273-.029.425-.153.27-.422.293-.672.372a10.659,10.659,0,0,0-2.992,2.839,4.866,4.866,0,0,1,.12-2.2c.158-.243.246-.021.343.067.264.238.293.246.645.135-.293-.053-.607,0-.672-.387a.417.417,0,0,1,.191-.49c.381-.164.587.158.859.44-.255-.364-.481-.61-.88-.546-.065,0-.141-.018-.1-.126a5.309,5.309,0,0,1,2.32-2.223.68.68,0,0,1,.587.692C626.238,195.66,626.15,195.789,626.24,195.915Z" transform="translate(-378.807 -33.999)"/><path class="b" d="M451.959,288.1a3.35,3.35,0,0,1-.466-2.69c.059-.208-.117-.135-.2-.167a4.03,4.03,0,0,1,1.32-.455c.15.191.026.361-.044.525a2.162,2.162,0,0,0,.686,2.572,1.607,1.607,0,0,0,1.927-.153c.194-.182.293-.358,0-.543.475-.129.947.079,1.423.021q.041.021.029.044c0,.015-.018.023-.026.023-.381.164-.466.587-.669.9a2.466,2.466,0,0,1-3.734.323C452.085,288.392,452.064,288.219,451.959,288.1Z" transform="translate(-257.636 -97.574)"/><path class="b" d="M504.15,174.834c.082-.05.235-.085.208-.182-.123-.46.126-.88.173-1.3a2.03,2.03,0,0,0-.123-.909c-.065-.185.065-.194.094-.293a4.96,4.96,0,0,1,1.886,3.575,4.3,4.3,0,0,1-.331,2.22A11.463,11.463,0,0,0,504.15,174.834Z" transform="translate(-294.992 -17.971)"/><path class="b" d="M570.771,316.866c-.144-.419-.39-.493-.8-.378a4.229,4.229,0,0,1-1.071.026,5.073,5.073,0,0,0-1.132.067,21.325,21.325,0,0,1,1.173-2.772.847.847,0,0,0,.927.666,14.69,14.69,0,0,0,1.9-.1,16.947,16.947,0,0,1-.745,1.777c-.153.053-.226-.079-.311-.167-.331-.352-.669-.7-.936-1a14.677,14.677,0,0,1,1.173,1.352Z" transform="translate(-339.953 -118.082)"/><path class="b" d="M455.86,241.441c.32.053.431-.082.417-.437-.026-.587,0-1.2,0-1.8,0-.223.021-.416.293-.443a12.079,12.079,0,0,1,2.778,2.253c.147.144.12.238-.05.326A3.649,3.649,0,0,1,455.86,241.441Z" transform="translate(-260.866 -65.045)"/><path class="b" d="M457.506,285.95c.123.065.317-.056.375.094s-.088.293-.191.408a1.69,1.69,0,0,1-2.9-.628,1.977,1.977,0,0,1,.038-1.857,1.508,1.508,0,0,0,.106-.416,6.482,6.482,0,0,1,2.006-.513,4.54,4.54,0,0,0,.7,0,1.059,1.059,0,0,1,1.056.537,3.05,3.05,0,0,1,.563,1.713c0,.167,0,.326-.217.337s-.264-.1-.293-.317c-.111-1.425-1.153-2.258-2.346-1.9a1.652,1.652,0,0,0-.88,2.431,1.037,1.037,0,0,0,1.76.147Z" transform="translate(-259.957 -96.326)"/><path class="b" d="M652.761,270.91c.173.252.05.543.079.812a11.274,11.274,0,0,1,0,1.188.827.827,0,0,0,.153.642l-.51.041a3.617,3.617,0,0,1-2.778-1.4c-.117-.132-.15-.241.053-.323a13.2,13.2,0,0,1,3-.959Z" transform="translate(-397.789 -87.765)"/><path class="b" d="M471.473,286.079c-.088-.4.053-.807-.067-1.214a4.559,4.559,0,0,0-.323-1.032c-.129-.223,0-.238.158-.252a5.53,5.53,0,0,1,3.687,3.323A12.084,12.084,0,0,0,471.473,286.079Z" transform="translate(-271.587 -96.719)"/><path class="b" d="M640.453,294.774h.88c.293,0,.367.173.249.469a3.84,3.84,0,0,0-.32,1.962c0,.088.047.17,0,.255-.126.229-.1.334.182.343.223,0,.15.135.044.243a4.5,4.5,0,0,1-2.012-.067.164.164,0,0,1,.152-.07.34.34,0,0,0-.179-.029c-.106,0-.241.021-.293-.12s.056-.194.126-.258a1.1,1.1,0,0,0,.241-1.065,1.734,1.734,0,0,1,.191-1.42c.029-.035,0-.114,0-.173A1.618,1.618,0,0,1,640.453,294.774Z" transform="translate(-390.391 -104.619)"/><path class="b" d="M536.418,305.527a8.5,8.5,0,0,0-2.613-.132c-.208,0-.417-.279-.625-.021l-.425-.88a6.083,6.083,0,0,0-.015-1.056c.167.05.293.293.51.091.088-.1.223-.018.317-.088h1.519c.1,0,.114-.114.2-.111A19.187,19.187,0,0,1,536.418,305.527Z" transform="translate(-315.197 -110.676)"/><path class="b" d="M486.112,277.6c-.026.264-.056.525-.311.669a.27.27,0,0,0-.117.173c-.085.634-.141,1.27-.252,1.9-.041.238-.293.326-.5.378a18.346,18.346,0,0,1-1.9-2.206c-.12-.161-.132-.293.1-.34A18.074,18.074,0,0,1,486.112,277.6Z" transform="translate(-280.005 -92.493)"/><path class="b" d="M633.739,295.11c.167.091.364.167.068.364-.37.246-.223.631-.173.956a5.01,5.01,0,0,1,.032.924c0,.293-.214.463-.469.631.191.138.446,0,.587.223l-.293.032a4.364,4.364,0,0,1-2.517-1.466c-.1-.106-.185-.22-.276-.331-.032-.15.088-.188.164-.2a4.456,4.456,0,0,0,1.733-.941l.331-.091c.331-.123.138.214.235.293.194-.065.293-.27.431-.39Z" transform="translate(-384.419 -104.867)"/><path class="b" d="M618.231,226.36c.255,0,.375.117.364.4v1.015c0,.123.053.293-.106.343a.387.387,0,0,1-.428-.067c-.208-.208-.414-.417-.628-.634-.085.05-.059.109,0,.2a11.509,11.509,0,0,1,.98,1.226.235.235,0,0,1,.015.194,16.181,16.181,0,0,0-2.267,1.974A5.78,5.78,0,0,1,618.231,226.36Z" transform="translate(-374.15 -56.282)"/><path class="b" d="M615.794,257.034a11.75,11.75,0,0,0-3.124,1.466,5.18,5.18,0,0,1,1.452-2.7c.293,0,.326-.323.5-.466a1.487,1.487,0,0,1,.742-.5c.249-.1.323.1.372.293a2.786,2.786,0,0,1,.029,1.355c-.038.164-.07.249.1.346C616.093,256.931,615.888,256.978,615.794,257.034Z" transform="translate(-371.683 -76.379)"/><path class="b" d="M621.58,282.84a3.031,3.031,0,0,1,2.106-4.165c.147-.029.311.015.387-.179a2.179,2.179,0,0,1,.522.044c.4.032.408.208.208.5l-.4.587a1.951,1.951,0,0,0-2.053,1.86,6.28,6.28,0,0,1,0,.66C622.093,282.386,621.92,282.723,621.58,282.84Z" transform="translate(-377.809 -93.125)"/><path class="b" d="M542.49,153.9a2.932,2.932,0,0,1-.091-2.173c.032-.126.12-.241.079-.378a.587.587,0,0,0-.293-.419c-.185-.088-.273.094-.375.2s-.161.2-.243.293c-.235,0-.293.293-.566.334a1.986,1.986,0,0,1,.587-.824.408.408,0,0,0,.167-.487,1.024,1.024,0,0,1,0-.522,1.1,1.1,0,0,0-.176-1.071,10.982,10.982,0,0,1,1.666,1.933,12.053,12.053,0,0,1-.205,3.165.217.217,0,0,0,.047.2c.214.331-.047.331-.235.381Z" transform="translate(-321.034 -1.505)"/><path class="b" d="M452.948,296.08a2.71,2.71,0,0,0,2.2.98,2.285,2.285,0,0,0,1.381-.587,4.472,4.472,0,0,1,.4-.293c-.422.587-.235,1.244-.246,1.88,0,.155.05.331-.1.452a10.569,10.569,0,0,1-3.244-1.053,7.212,7.212,0,0,1-.648-.375c0-.276.293-.4.293-.689A1.79,1.79,0,0,1,452.948,296.08Z" transform="translate(-258.626 -105.553)"/><path class="b" d="M615.829,264.53c.088.044.293-.059.208.2a10.354,10.354,0,0,0-.126,2.132c-.029.2.276.261.346.458a4.131,4.131,0,0,1-2.81-1.308c-.223-.205-.073-.293.082-.372a10.978,10.978,0,0,1,2.015-.941A1.318,1.318,0,0,0,615.829,264.53Z" transform="translate(-372.153 -83.256)"/><path class="b" d="M652.335,263c.185.038.22.155.138.323-.211.449.018.962-.182,1.42-.041.091.085.126.17.135s.226-.026.293.091h-.293c-.334.023-.716.2-.93-.393.038.191.123.226.15.293s.109.135.079.235a12.35,12.35,0,0,0-2.27.83A4.267,4.267,0,0,1,652.335,263Z" transform="translate(-397.704 -82.175)"/><path class="b" d="M535.91,192.481c.185-.293.062-.625.141-.939a3.014,3.014,0,0,1,.818-1.64.622.622,0,0,0,.208-.543,5.623,5.623,0,0,1,.311,1.525,2.218,2.218,0,0,0-.229,2.053,5.339,5.339,0,0,1-.507,1.343c-.026.059-.094.138-.144.138-.1,0-.106-.117-.126-.2Z" transform="translate(-317.437 -30.134)"/><path class="b" d="M622.288,255.523c0-.062.191-.094.026-.167a3.118,3.118,0,0,0-.4-.12,2.019,2.019,0,0,0,.132-1.854c-.038-.05-.123-.056-.185-.082a4.039,4.039,0,0,1,1.76-.639,15.108,15.108,0,0,1-.062,1.912c-.059.37.091.487.484.551l-.243.123Z" transform="translate(-378.178 -74.868)"/><path class="b" d="M547.922,195.2a1.584,1.584,0,0,1,.763,1.44,2.37,2.37,0,0,1-1.977,2.475,3.247,3.247,0,0,1,.135-1,1.109,1.109,0,0,0,.974-.962,1.381,1.381,0,0,0-.293-1.235A2.265,2.265,0,0,1,547.922,195.2Z" transform="translate(-325.068 -34.261)"/><path class="b" d="M435.677,261.52c.4.249.161.613.026.8a7.04,7.04,0,0,1-1.12,1.255c-.109.094-.047.235-.161.27a11.434,11.434,0,0,1-1.062-.748c-.249-.164-.22-.293.018-.422a14.14,14.14,0,0,1,2.3-1.159Z" transform="translate(-244.842 -81.129)"/><path class="b" d="M552.947,194.174c-.123.176-.238.358-.37.522-.079.1-.205.217-.32.138s-.029-.235,0-.358a7.454,7.454,0,0,0,.39-1.34,2.427,2.427,0,0,0-.968-2.261l.493-.895c.1.475.5.745.7,1.173a3.317,3.317,0,0,1,.1,2.86A1.233,1.233,0,0,0,552.947,194.174Z" transform="translate(-328.582 -30.572)"/><path class="b" d="M460.563,288.416a.71.71,0,0,0,.076-.469c-.035-.217-.158-.358-.37-.323a.314.314,0,0,0-.27.414c.059.226.085.422-.17.493a.493.493,0,0,1-.587-.293,1.1,1.1,0,0,1,.243-1.279,1.009,1.009,0,0,1,1.352.094,1.569,1.569,0,0,1,.384,1.291A1.761,1.761,0,0,1,460.563,288.416Z" transform="translate(-263.181 -98.954)"/><path class="b" d="M624.489,284.478a1.725,1.725,0,0,1,.076-1.434,2.159,2.159,0,0,1,1.578-1.229c.132-.029.343-.135.4.147C625.865,282.8,625.246,283.7,624.489,284.478Z" transform="translate(-379.951 -95.44)"/><path class="b" d="M577.989,283.353c.173.132.211-.079.276-.15,1.88-2.033,3.813-4.012,5.655-6.077a1.229,1.229,0,0,1,.563-.417.54.54,0,0,1-.164.352c-.34.144-.51.481-.751.739l-5.362,5.74a1.109,1.109,0,0,1-.466.355.974.974,0,0,1,.249-.543Z" transform="translate(-346.998 -91.864)"/><path class="b" d="M556.83,266.286a1.675,1.675,0,0,0-.566-.739.226.226,0,0,0-.34,0c-.144.144,0,.235.079.326s.179.188.261.293.235.2.117.326-.241-.041-.331-.132-.161-.2-.252-.293a.223.223,0,0,0-.361,0c-.129.153-.047.241.044.34s.252.273.378.411a.147.147,0,0,1,.015.2.111.111,0,0,1-.179.026,1.8,1.8,0,0,1-.587-.736c-.1-.37.678-1.232,1.029-1.147.243.059.343.328.551.443.021-.021.056-.038.056-.053-.211-1.32.144-2.64,0-3.96.114.029.091.132.091.214Q556.85,264.036,556.83,266.286Z" transform="translate(-330.998 -81.178)"/><path class="b" d="M547.855,197.65c.208,0,.279.17.343.331a1.693,1.693,0,0,1-.815,2.027c-.153.059-.2-.029-.223-.161a22.363,22.363,0,0,1,.7-2.2Z" transform="translate(-325.387 -35.992)"/><path class="b" d="M636.369,288.955c-.355.141-.736.044-1.1.155-.073-.241.068-.458.065-.692a2.322,2.322,0,0,0-.147-.988,2.009,2.009,0,0,1,.666-.44,1.617,1.617,0,0,1,.428,1.37.977.977,0,0,0,.085.6Z" transform="translate(-387.598 -99.129)"/><path class="b" d="M639.817,285.38a2.994,2.994,0,0,1,.056,2.285c.334.126.666-.041.959.126h-1.5a.71.71,0,0,1,0-.428,2.265,2.265,0,0,0-.091-1.288.481.481,0,0,1,0-.5A1.065,1.065,0,0,1,639.817,285.38Z" transform="translate(-390.413 -97.991)"/><path class="b" d="M631.305,288.49c.417.375.241.862.208,1.317a1.438,1.438,0,0,1-.126.361,17.291,17.291,0,0,0-1.675.528c-.079-.2.062-.293.106-.425.123-.132.293-.129.449-.185.466-.167.587-.39.569-.95a.405.405,0,0,1,.059-.293Z" transform="translate(-383.711 -100.189)"/><path class="b" d="M438.29,267.574c0-.252.648-1.038.842-1.006a.364.364,0,0,1,.293.411,1.446,1.446,0,0,0,.129.88.334.334,0,0,1-.091.419A5.007,5.007,0,0,1,438.29,267.574Z" transform="translate(-248.449 -84.696)"/><path class="b" d="M638.051,286.059c.026.452.314.839.255,1.32a3.386,3.386,0,0,1-.176.88l-.15.023c-.135-.023-.311-.029-.246-.246a2.412,2.412,0,0,0-.264-1.719C637.652,286.209,637.807,286.024,638.051,286.059Z" transform="translate(-389.209 -98.468)"/><path class="b" d="M632.033,295.77a2.587,2.587,0,0,1-1.519.983.619.619,0,0,0-.378.155c-.352-.554-.358-.566.226-.739A11.53,11.53,0,0,1,632.033,295.77Z" transform="translate(-383.854 -105.333)"/><path class="b" d="M623.767,202.406a.988.988,0,0,1,1.006.5c.056.085.217.147.091.293s-.182-.023-.252-.1-.194-.211-.293-.311a.337.337,0,0,0-.422-.056c-.15.082-.126.252-.111.4.021.2.17.246.328.27h.082c.123,0,.261-.167.367.029a.129.129,0,0,1-.018.114c-.123.117-.249.246-.437.188s-.381-.1-.478-.311c-.056-.12-.114-.2-.249-.111A2.9,2.9,0,0,1,623.767,202.406Z" transform="translate(-379.252 -39.347)"/><path class="b" d="M536.411,297.194c-.138,0-.167.132-.243.208a.49.49,0,0,1-.607.094.748.748,0,0,1-.464-.625.625.625,0,0,1,.32-.587c.111-.079.328,0,.328-.255a.311.311,0,0,1,.17.261c-.053.158.044.311,0,.475-.053.276-.158.393-.428.179.1.211.229.211.384.117s.2-.214.364-.15A.506.506,0,0,1,536.411,297.194Z" transform="translate(-316.861 -105.517)"/><path class="b" d="M471.582,184.757l-.255.032c.2.2.364.352.516.516a.147.147,0,0,1,.018.2c-.065.076-.129.015-.176-.032-.12-.12-.238-.246-.355-.37s-.255-.241-.384-.079a.331.331,0,0,0,.062.437c.106.114.214.229.317.349.059.067.1.153.032.235a.135.135,0,0,1-.217-.018,4.329,4.329,0,0,1-.522-.678.446.446,0,0,1,.188-.569c.088-.067.211-.079.27-.191C471.236,184.657,471.433,184.631,471.582,184.757Z" transform="translate(-271.268 -26.763)"/><path class="b" d="M631.2,289.71c.126.88.032,1.068-.566,1.358-.173.085-.352-.041-.51.065A4.534,4.534,0,0,1,631.2,289.71Z" transform="translate(-384.015 -101.051)"/><path class="b" d="M539.564,196.569c-.293-.067-.2-.367-.235-.543a2.485,2.485,0,0,1,.258-1.467c.05-.111.129-.076.205-.035A5.378,5.378,0,0,1,539.564,196.569Z" transform="translate(-319.839 -33.755)"/><path class="b" d="M530.57,301.737a.909.909,0,0,1,.015,1.056l-.915-1.862C530.06,301.08,530.224,301.537,530.57,301.737Z" transform="translate(-313.027 -108.98)"/><path class="b" d="M468.995,293.117v-.067a6.042,6.042,0,0,1,1.009.161c-.152.023-.293,0-.387.226a2.993,2.993,0,0,1-.507.689c-.056.067-.132.191-.235.1s-.041-.194,0-.293c.067-.161.138-.323.214-.478S469.2,293.179,468.995,293.117Z" transform="translate(-270.024 -103.411)"/><path class="b" d="M551.521,282.226c.138.05.293.161.419,0s.018-.246-.032-.358-.05-.173.044-.223.12.041.167.088c.241.235.182.792-.1.786-.5,0-.5.326-.563.669A2.38,2.38,0,0,1,551.521,282.226Z" transform="translate(-328.408 -95.341)"/><path class="b" d="M637.108,192.17c-.132.326-.158.771-.683.625-.173-.047-.255-.211-.4-.276A3.135,3.135,0,0,1,637.108,192.17Z" transform="translate(-388.185 -32.119)"/><path class="b" d="M552.182,272.68a1.246,1.246,0,0,0,.208.771c.185.232-.05.751-.358.936A6.343,6.343,0,0,1,552.182,272.68Z" transform="translate(-328.826 -89.016)"/><path class="b" d="M575.1,318.526a12.4,12.4,0,0,1-1.466-1.616,16.405,16.405,0,0,1,1.528,1.437A.161.161,0,0,1,575.1,318.526Z" transform="translate(-344.094 -120.273)"/><path class="b" d="M536.956,297.6a2.494,2.494,0,0,1-.255.22c-.153.1-.314.214-.478.021a.411.411,0,0,1-.026-.54c.129.059.082.161.1.238s.05.141.132.135.1-.082.111-.155c.032-.179-.076-.381.085-.537Z" transform="translate(-317.577 -106.189)"/><path class="b" d="M633.215,195.491c-.117,0-.2-.067-.153-.194.173-.484-.15-.675-.443-.88l.417-.188a.627.627,0,0,0,.205.411.557.557,0,0,1-.026.851Z" transform="translate(-385.782 -33.575)"/><path class="b" d="M595.58,318.8c.672-.534,1.466-.859,2.165-1.329a.109.109,0,0,1,.173,0c0,.1,0,.2-.1.238-.164-.129-.276.038-.39.1-.587.323-1.15.663-1.725.994a.079.079,0,0,1-.12-.006Z" transform="translate(-359.606 -120.643)"/><path class="b" d="M527.242,174.078c-.2.164.088.387-.076.587-.182,0-.111-.5-.428-.293,0,0-.123-.158-.056-.267.106-.167.235-.293.443-.188A.185.185,0,0,1,527.242,174.078Z" transform="translate(-310.901 -19.192)"/><path class="b" d="M638.986,295.139a.472.472,0,0,1-.2.364c-.126.076-.211.314-.37.22s.047-.241.047-.372-.082-.1-.141-.129A1.291,1.291,0,0,1,638.986,295.139Z" transform="translate(-389.81 -104.879)"/><path class="b" d="M656.127,268.612l-.39-.446c-.047-.053-.109-.12-.056-.188s.147-.044.217,0,.076.053.088.088c.153.452.513.375.839.387A2.444,2.444,0,0,1,656.127,268.612Z" transform="translate(-402.065 -85.663)"/><path class="b" d="M632.534,316.65l.293.1c.185.12.37.238.548.364.029.021.109.07.032.12s-.1-.021-.152-.032l-.915-.452C632.407,316.732,632.49,316.753,632.534,316.65Z" transform="translate(-385.584 -120.089)"/><path class="b" d="M512.993,317.56c.37.062.642.355.988.469.082.15.4.056.337.361a7.741,7.741,0,0,0-1.258-.654C512.97,317.707,512.993,317.625,512.993,317.56Z" transform="translate(-301.24 -120.732)"/><path class="b" d="M633.19,202.065a3,3,0,0,1,.672-.372l.425-.153-.27.267-.645.367C633.343,202.08,633.257,202.088,633.19,202.065Z" transform="translate(-386.185 -38.741)"/><path class="b" d="M648.7,294.29c.214.088.654,0,.613.22-.05.261-.361-.05-.566-.056s-.355.062-.51-.07C648.387,294.319,648.574,294.466,648.7,294.29Z" transform="translate(-396.821 -104.288)"/><path class="b" d="M450.974,266.857a.293.293,0,0,1-.372.1,1.534,1.534,0,0,0-.722-.023.4.4,0,0,1,.428-.217C450.5,266.933,450.772,266.707,450.974,266.857Z" transform="translate(-256.64 -84.797)"/><path class="b" d="M486.733,262.008c-.229.17-.546-.029-.783.2l.217-.384A.953.953,0,0,1,486.733,262.008Z" transform="translate(-282.13 -81.341)"/><path class="b" d="M481.985,198.836l-.481-.446c-.062-.129-.232-.155-.264-.323.144-.032.223.091.328.147.147.205.411.276.522.519Z" transform="translate(-278.802 -36.283)"/><path class="b" d="M618.119,256.57c-.185.135.015.739-.5.466A1.094,1.094,0,0,1,618.119,256.57Z" transform="translate(-375.181 -77.631)"/><path class="b" d="M499.593,177.5a1.173,1.173,0,0,1-.393-.428.637.637,0,0,1,.469.317Z" transform="translate(-291.494 -21.448)"/><path class="b" d="M631.17,261.226a.944.944,0,0,1,.587.059c-.132.155-.293.094-.417.091Z" transform="translate(-384.757 -80.906)"/><path class="b" d="M603.133,317.066h-.173c.044-.205.191-.264.493-.2Z" transform="translate(-364.821 -120.224)"/><path class="b" d="M547.817,328.35a6.589,6.589,0,0,1-1.557-1.76,1.153,1.153,0,0,1,1.466.047,7.192,7.192,0,0,1,.631.81c1.205,1.3,2.748,1.1,3.789-.378.091-.129.141-.293.293-.355.311,0,.642-.311.944.067.038.05.161-.1.249-.144s.17-.32.387-.229a.25.25,0,0,1-.026.12,6.938,6.938,0,0,1-2.417,2.385,1.169,1.169,0,0,1-.191.062,3.321,3.321,0,0,1-3.323-.472.716.716,0,0,0-.246-.153Z" transform="translate(-324.751 -126.944)"/><path class="b" d="M542.923,319.248c-.452-.4-.956-.258-1.467-.155-.587-.675-.994-1.5-1.537-2.22-.155-.2-.293-.422-.44-.634l.044-.041c.188-.035.293.123.364.243.217.323.378.141.534-.044a4.922,4.922,0,0,1,.4-.452c.117-.109.252-.311.414-.138s-.015.293-.114.416c-.026.032-.059.062-.085.094-.132.167-.056.238.111.241a3.767,3.767,0,0,1,.986.094c.161.044.328.07.416.249a8.015,8.015,0,0,0,.378,2.053A.326.326,0,0,1,542.923,319.248Z" transform="translate(-319.96 -119.446)"/><path class="b" d="M572.65,319.774v-.135a1.443,1.443,0,0,1,.364-.771,4.388,4.388,0,0,1,.88-1.194c.161-.211.314-.431.49-.628.1-.109.147-.32.355-.261-.666.842-1.244,1.76-1.83,2.64C572.835,319.543,572.738,319.648,572.65,319.774Z" transform="translate(-343.401 -120.178)"/><path class="b" d="M551.57,333.17a.531.531,0,0,1,.378.153,3.117,3.117,0,0,0,2.871.522c.106-.026.217-.035.323-.053a2.939,2.939,0,0,1-2.6.029A2.323,2.323,0,0,1,551.57,333.17Z" transform="translate(-328.504 -131.764)"/><path class="b" d="M529.66,329.1a4.777,4.777,0,0,1,1.109.956c.276.264.537.548.8.824a.534.534,0,0,1,.387.49.179.179,0,0,1-.065.1,23.537,23.537,0,0,0-2.129-2.2C529.715,329.226,529.657,329.185,529.66,329.1Z" transform="translate(-313.02 -128.888)"/><path class="b" d="M519.06,321.21a5.4,5.4,0,0,1,2.036,1.425Z" transform="translate(-305.529 -123.312)"/><path class="b" d="M592.195,322.11h.117a11.966,11.966,0,0,1-1.522,1.059A6.591,6.591,0,0,1,592.195,322.11Z" transform="translate(-356.221 -123.948)"/><path class="b" d="M587.11,326.562c.378-.235.636-.66,1.082-.792a6.3,6.3,0,0,1-1.015.9Z" transform="translate(-353.62 -126.534)"/><path class="b" d="M526.646,326.47c.1.2.349.273.414.51a5.306,5.306,0,0,1-1.079-.88C526.262,326.1,526.4,326.39,526.646,326.47Z" transform="translate(-310.42 -126.768)"/><path class="b" d="M581.42,313.007a1.053,1.053,0,0,1,.7-.757Z" transform="translate(-349.599 -116.98)"/><path class="b" d="M538.721,316.362l-.331-.39.07-.062c.293,0,.343.173.279.434Z" transform="translate(-319.19 -119.566)"/><path class="b" d="M554.065,279.4c-.053.152-.155.126-.226.056-.217-.22-.425-.452-.634-.683a.147.147,0,0,1,0-.2.091.091,0,0,1,.144,0,5.047,5.047,0,0,1,.663.7A1.025,1.025,0,0,0,554.065,279.4Z" transform="translate(-329.632 -93.157)"/><path class="b" d="M533.6,301.115c-.041.293-.2.114-.317.088a1.135,1.135,0,0,1-.5-.818c0-.155.015-.331.188-.334.22,0,.1.167.094.293C533.048,300.748,533.438,300.848,533.6,301.115Z" transform="translate(-315.232 -108.358)"/><path class="b" d="M570.145,318.7l-1.255,1.965a1.417,1.417,0,0,0-.144.155c-.211.293-.293.334-.61.164-.106-.056-.185.047-.276.032-.155-.026-.317.1-.466-.021a.188.188,0,0,1-.05-.161,6.854,6.854,0,0,1,.475-1.5c.1-.067.079-.176.085-.293.032-.616.109-.727.669-.771a11.247,11.247,0,0,1,1.241,0C570.054,318.286,570.244,318.374,570.145,318.7Z" transform="translate(-339.649 -121.221)"/><path class="d" d="M546.771,326.046a21.714,21.714,0,0,1-1.214,3.96,15.074,15.074,0,0,1-2.285,2.5A7.591,7.591,0,0,1,532.5,330.83c-.185-.264-.4-.507-.607-.76a12.04,12.04,0,0,1-1.25-5.7c-.337-1.59.461-2.933,1.223-4.268a4.622,4.622,0,0,1,2.346-2.279l.475-.463c.686.059,1.12-.443,1.707-.619a7.259,7.259,0,0,1,6.523.971,5.77,5.77,0,0,0,.587.317A10.24,10.24,0,0,1,546.771,326.046Z" transform="translate(-313.662 -119.891)"/><path class="b" d="M627.55,198.137a1.581,1.581,0,0,1,.906-1.117,1.522,1.522,0,0,1,.83.716.132.132,0,0,1-.059.15.153.153,0,0,1-.188-.05c-.12-.141-.232-.293-.352-.431s-.214-.153-.323-.032a.258.258,0,0,0,0,.358c.091.106.214.185.311.293s.182.179.067.293-.179,0-.249-.067a1.958,1.958,0,0,1-.17-.194c-.12-.155-.267-.323-.443-.153s-.035.37.109.519c.079.082.17.15.249.232a.126.126,0,0,1,0,.191.15.15,0,0,1-.147.021C627.849,198.642,627.576,198.431,627.55,198.137Z" transform="translate(-382.199 -35.547)"/><path class="e" d="M35.706-99.15h8.74L38.271-70.069H32.609l4.163-19.67q.2-.848.543-2.377t.5-2.358l-10.673,24.4h-5.9l-.3-24.4q-.158.829-.464,2.358t-.5,2.377l-4.163,19.67H10.157L16.332-99.15h8.839l.414,22.866ZM49.9-82.972h8.74A4.117,4.117,0,0,0,58-86.355a3.431,3.431,0,0,0-2.772-1.154,4.675,4.675,0,0,0-3.285,1.223A7.8,7.8,0,0,0,49.9-82.972Zm13.81-4.991a9.072,9.072,0,0,1,.691,4.439,27.538,27.538,0,0,1-.71,4.261H48.974q-.572,3.236,1.065,4.538a4.01,4.01,0,0,0,2.624.809A4.891,4.891,0,0,0,55.7-74.9a6.852,6.852,0,0,0,1.361-1.48H62.8A9.464,9.464,0,0,1,59.983-72.5a12,12,0,0,1-8.4,3.137A8.909,8.909,0,0,1,44.9-72q-2.575-2.644-1.312-8.6a14.976,14.976,0,0,1,4.646-8.562,11.876,11.876,0,0,1,7.98-2.979,9.943,9.943,0,0,1,4.626,1.006A6.163,6.163,0,0,1,63.712-87.963Zm18.9-4.084-1.223,5.761q-.513-.059-.927-.079t-.671-.02a5.852,5.852,0,0,0-5.031,2.21,10.268,10.268,0,0,0-1.46,3.827L71.13-70.069H65.468l4.557-21.5h5.366L74.6-87.825a16.446,16.446,0,0,1,2.88-2.94,7.438,7.438,0,0,1,4.4-1.322q.158,0,.266.01T82.613-92.047ZM79.14-70.069l9.648-10.89L84.013-91.534H90.9L93.168-85.3,98-91.534h6.688L95.4-81.058l5.011,10.989h-7L91.057-76.52l-5.09,6.451Zm38.2-17.066a5.393,5.393,0,0,0-4.814,2.9,13.212,13.212,0,0,0-1.421,3.906q-.789,3.749.868,5.268a3.82,3.82,0,0,0,2.624.888,5.11,5.11,0,0,0,3.966-1.815,10.272,10.272,0,0,0,2.249-4.834,7.671,7.671,0,0,0-.2-4.4Q119.881-87.135,117.336-87.135Zm9.332,6.037a16.046,16.046,0,0,1-4.39,8.661,10.282,10.282,0,0,1-7.211,2.979,5.738,5.738,0,0,1-3.985-1.282,5.922,5.922,0,0,1-1.381-2.072l-2.387,11.206H101.75l6.372-29.968h5.386l-.671,3.176a12.252,12.252,0,0,1,2.407-2.21A8.423,8.423,0,0,1,120-92.047a6.726,6.726,0,0,1,5.79,2.782Q127.812-86.483,126.668-81.1Zm63.725-10.95-1.223,5.761q-.513-.059-.927-.079t-.671-.02a5.852,5.852,0,0,0-5.031,2.21,10.268,10.268,0,0,0-1.46,3.827l-2.17,10.279h-5.662l4.557-21.5h5.366l-.789,3.749a16.445,16.445,0,0,1,2.88-2.94,7.437,7.437,0,0,1,4.4-1.322q.158,0,.266.01T190.392-92.047Zm.1,4.676.848-4.005h3l1.282-6h5.564l-1.282,6h3.492l-.848,4.005h-3.492l-2.427,11.364q-.276,1.322-.01,1.647t1.983.326q.256,0,.543-.01t.582-.03l-.908,4.2-2.683.1q-4,.138-5.149-1.381a3.674,3.674,0,0,1-.316-2.979l2.821-13.238Z" transform="translate(76.57 294.182)"/></g></g></svg>